<svg width="109" height="109" viewBox="0 0 109 109" fill="none" xmlns="http://www.w3.org/2000/svg">
<g id="Iconly/Bulk/Location">
<g id="Location">
<path id="Path_34175" fill-rule="evenodd" clip-rule="evenodd" d="M38.7477 13.3378C48.6706 7.57221 60.8675 7.67299 70.6972 13.6018C80.4304 19.6514 86.3459 30.4481 86.2908 42.0624C86.0643 53.6005 79.7211 64.4463 71.7922 72.8306C67.2158 77.6916 62.0964 81.9899 56.5384 85.6379C55.966 85.9688 55.339 86.1904 54.6883 86.2917C54.0621 86.265 53.4522 86.08 52.9137 85.7532C44.4284 80.272 36.9842 73.2754 30.9393 65.1001C25.881 58.2758 23.0073 50.031 22.7083 41.4855C22.7017 29.849 28.8248 19.1035 38.7477 13.3378ZM44.4817 46.3013C46.1509 50.4163 50.0907 53.1004 54.4617 53.1005C57.3253 53.121 60.0779 51.974 62.1063 49.9151C64.1347 47.8561 65.2704 45.0562 65.2602 42.1393C65.2755 37.6869 62.6542 33.6642 58.6204 31.9496C54.5865 30.2349 49.9357 31.1665 46.8395 34.3093C43.7434 37.4521 42.8125 42.1863 44.4817 46.3013Z" fill="#4D61FC"/>
<ellipse id="Ellipse_743" opacity="0.4" cx="54.4998" cy="95.375" rx="22.7083" ry="4.54167" fill="#4D61FC"/>
</g>
</g>
</svg>
