<svg width="109" height="109" viewBox="0 0 109 109" fill="none" xmlns="http://www.w3.org/2000/svg">
<g id="Iconly/Bulk/Message(Blue)">
<g id="Group">
<path id="Fill 1" opacity="0.4" d="M99.9162 72.395C99.9162 85.0662 89.7429 95.3304 77.0716 95.3758H77.0262H32.0183C19.3925 95.3758 9.08289 85.1571 9.08289 72.4858V72.4404C9.08289 72.4404 9.11014 52.339 9.14647 42.2292C9.15101 40.3308 11.331 39.2681 12.8161 40.4489C23.6071 49.01 42.9047 64.6197 43.1454 64.824C46.37 67.4082 50.4575 68.8661 54.6358 68.8661C58.8141 68.8661 62.9016 67.4082 66.1262 64.7741C66.3669 64.6151 85.233 49.4732 96.1875 40.7714C97.6772 39.586 99.8663 40.6487 99.8708 42.5426C99.9162 52.5752 99.9162 72.395 99.9162 72.395Z" fill="#4D61FC"/>
<path id="Fill 4" d="M97.5369 25.7675C93.6038 18.3555 85.8648 13.6231 77.3446 13.6231H32.0188C23.4986 13.6231 15.7596 18.3555 11.8265 25.7675C10.9455 27.4252 11.3633 29.4917 12.8302 30.6634L46.5521 57.6364C48.9138 59.5439 51.775 60.4931 54.6363 60.4931C54.6545 60.4931 54.6681 60.4931 54.6817 60.4931C54.6953 60.4931 54.7135 60.4931 54.7271 60.4931C57.5884 60.4931 60.4496 59.5439 62.8113 57.6364L96.5332 30.6634C98.0001 29.4917 98.418 27.4252 97.5369 25.7675Z" fill="#4D61FC"/>
</g>
</g>
</svg>
