<svg width="109" height="109" viewBox="0 0 109 109" fill="none" xmlns="http://www.w3.org/2000/svg">
<g id="Iconly/Bulk/Tick Square(Green)">
<g id="Tick Square">
<path id="Fill 1" opacity="0.4" d="M74.2122 9.08237H34.836C19.4397 9.08237 9.08472 19.8915 9.08472 35.969V73.0745C9.08472 89.1065 19.4397 99.9157 34.836 99.9157H74.2122C89.6085 99.9157 99.918 89.1065 99.918 73.0745V35.969C99.918 19.8915 89.6085 9.08237 74.2122 9.08237Z" fill="#4D61FC"/>
<path id="Fill 4" d="M49.1109 69.2508C48.0936 69.2508 47.0762 68.8647 46.2996 68.0881L35.5222 57.3107C33.969 55.7575 33.969 53.2414 35.5222 51.6927C37.0755 50.1395 39.587 50.1349 41.1403 51.6882L49.1109 59.6588L67.8589 40.9108C69.4122 39.3575 71.9237 39.3575 73.4769 40.9108C75.0302 42.464 75.0302 44.9801 73.4769 46.5334L51.9222 68.0881C51.1456 68.8647 50.1282 69.2508 49.1109 69.2508Z" fill="#4D61FC"/>
</g>
</g>
</svg>
